# xmcd
#
# Track frame offsets: 
#        150
#        12365
#        28244
#        40625
#        55226
#        70821
#        88346
#        101242
#        118024
#        133276
#        149187
#        167688
#
# Disc length: 2495 seconds
#
# Revision: 0
# Processed by: cddbd v1.5.2PL0 Copyright (c) Steve Scherf et al.
# Submitted via: ExactAudioCopy v1.0b4
#
DISCID=b609bd0c
DTITLE=Blues Band,  The - Itchy Feet (LP)
DYEAR=1900
DGENRE=Blues
TTITLE0=Talkin' Woman Blues
TTITLE1=Who' s Right, Who's Wrong
TTITLE2=Rock' n Roll Radio
TTITLE3=Itchy Feet
TTITLE4=Ultimatum Time
TTITLE5=So Lonely
TTITLE6=Come On
TTITLE7=Turn Around
TTITLE8=I Can' t Be Satisfied
TTITLE9=Got To Love You Baby
TTITLE10=Nothin' But The Blues
TTITLE11=Let Your Bucket Down
EXTD=
EXTT0=
EXTT1=
EXTT2=
EXTT3=
EXTT4=
EXTT5=
EXTT6=
EXTT7=
EXTT8=
EXTT9=
EXTT10=
EXTT11=
PLAYORDER=
